<svg xmlns="http://www.w3.org/2000/svg" viewBox="0 0 256 256" role="img" aria-labelledby="title desc">
  <title id="title">Eva-CLI logo</title>
  <desc id="desc">A red and purple Eva family mark for the open source CLI core, combining a terminal prompt with connected runtime nodes.</desc>
  <defs>
    <linearGradient id="core" x1="38" y1="34" x2="218" y2="222" gradientUnits="userSpaceOnUse">
      <stop stop-color="#ff5a5f"/>
      <stop offset="0.55" stop-color="#dc2626"/>
      <stop offset="1" stop-color="#991b1b"/>
    </linearGradient>
    <linearGradient id="shine" x1="70" y1="54" x2="172" y2="162" gradientUnits="userSpaceOnUse">
      <stop stop-color="#ffffff" stop-opacity="0.42"/>
      <stop offset="1" stop-color="#ffffff" stop-opacity="0"/>
    </linearGradient>
    <filter id="shadow" x="-20%" y="-20%" width="140%" height="140%">
      <feDropShadow dx="0" dy="16" stdDeviation="14" flood-color="#7f1d1d" flood-opacity="0.22"/>
    </filter>
  </defs>
  <rect width="256" height="256" rx="64" fill="#fff5f5"/>
  <g filter="url(#shadow)">
    <path
      fill="url(#core)"
      d="M128 22c57.4 0 104 45.1 104 100.8 0 36.6-20.4 68.7-50.9 86.4-6.5 3.8-11.1 10.1-13 17.3l-2.1 8.1a9.8 9.8 0 0 1-16.2 4.8l-18.3-16.8a15 15 0 0 0-10.1-3.9h-2.7C66.4 216.7 24 173 24 122.8 24 67.1 70.6 22 128 22Z"
    />
  </g>
  <path
    fill="url(#shine)"
    d="M48 116.2C48 72.9 84 38 128.6 38c36 0 66.5 22.8 76.9 54.1-17.3-19.8-43.3-32.4-72.4-32.4-44.6 0-80.6 34.9-80.6 78.2 0 8.3 1.3 16.2 3.8 23.7A75.9 75.9 0 0 1 48 116.2Z"
  />
  <g fill="none" stroke="#fff8f8" stroke-linecap="round" stroke-linejoin="round">
    <path d="M82 91l30 29-30 29" stroke-width="15"/>
    <path d="M121 154h50" stroke-width="15"/>
    <path d="M155 97l27-17 27 17v32l-27 17-27-17V97Z" stroke="#ede9fe" stroke-width="9"/>
    <path d="M130 120h25" stroke-width="8" opacity="0.82"/>
  </g>
  <g fill="#7c3aed">
    <circle cx="182" cy="80" r="9"/>
    <circle cx="209" cy="97" r="9"/>
    <circle cx="209" cy="129" r="9"/>
    <circle cx="182" cy="146" r="9"/>
    <circle cx="155" cy="129" r="9"/>
    <circle cx="155" cy="97" r="9"/>
  </g>
  <path
    fill="none"
    stroke="#7f1d1d"
    stroke-linecap="round"
    stroke-opacity="0.18"
    stroke-width="6"
    d="M64 202c15.8 12 35.9 19 57.5 19h2.7c4.7 0 9.3 1.7 12.9 4.8l17 14.9"
  />
</svg>
