<svg xmlns="http://www.w3.org/2000/svg" width="1200" height="620" viewBox="0 0 1200 620" role="img" aria-labelledby="title desc">
  <title id="title">Eva-CLI 副作用与安全边界</title>
  <desc id="desc">按只读诊断、本地写入、显式确认执行和当前不可用四个层级展示 Eva-CLI 命令的副作用边界。</desc>
  <defs>
    <marker id="arrow" viewBox="0 0 10 10" refX="8" refY="5" markerWidth="7" markerHeight="7" orient="auto">
      <path d="M0 0 L10 5 L0 10 Z" fill="#64748b"/>
    </marker>
    <style>
      .bg { fill: #f8fafc; }
      .frame { fill: #ffffff; stroke: #cbd5e1; stroke-width: 1.5; }
      .read { fill: #ecfdf5; stroke: #15803d; stroke-width: 1.6; }
      .write { fill: #eff6ff; stroke: #2563eb; stroke-width: 1.6; }
      .gated { fill: #fff7ed; stroke: #c2410c; stroke-width: 1.6; }
      .blocked { fill: #fef2f2; stroke: #b91c1c; stroke-width: 1.6; }
      .title { font: 700 27px Arial, "Microsoft YaHei", sans-serif; fill: #0f172a; }
      .subtitle { font: 14px Arial, "Microsoft YaHei", sans-serif; fill: #475569; }
      .label { font: 700 17px Arial, "Microsoft YaHei", sans-serif; fill: #0f172a; }
      .code { font: 12.5px Consolas, "SFMono-Regular", monospace; fill: #1e293b; }
      .text { font: 13px Arial, "Microsoft YaHei", sans-serif; fill: #475569; }
      .risk { font: 700 12px Arial, "Microsoft YaHei", sans-serif; fill: #64748b; }
      .line { fill: none; stroke: #64748b; stroke-width: 1.8; marker-end: url(#arrow); }
    </style>
  </defs>

  <rect class="bg" width="1200" height="620"/>
  <rect class="frame" x="34" y="32" width="1132" height="552" rx="8"/>
  <text class="title" x="68" y="78">Eva-CLI 副作用与安全边界</text>
  <text class="subtitle" x="68" y="106">命令名不能代替副作用判断；执行前应检查输出中的 status、invocation_executed 和 mutation_executed。</text>

  <text class="risk" x="82" y="143">副作用较低</text>
  <text class="risk" x="1040" y="143">生产能力缺口</text>
  <line class="line" x1="150" y1="138" x2="1020" y2="138"/>

  <rect class="read" x="62" y="164" width="252" height="302" rx="8"/>
  <text class="label" x="86" y="198">1. 只读诊断</text>
  <text class="code" x="86" y="232">version / doctor</text>
  <text class="code" x="86" y="258">config validate / inspect</text>
  <text class="code" x="86" y="284">adapter|mcp list/probe</text>
  <text class="code" x="86" y="310">discovery scan</text>
  <text class="code" x="86" y="336">release check/security/perf</text>
  <line x1="86" y1="358" x2="290" y2="358" stroke="#86efac"/>
  <text class="text" x="86" y="386">读取配置、状态或 evidence。</text>
  <text class="text" x="86" y="409">probe 成功不代表 provider</text>
  <text class="text" x="86" y="430">已经执行。</text>

  <rect class="write" x="336" y="164" width="252" height="302" rx="8"/>
  <text class="label" x="360" y="198">2. 本地写入</text>
  <text class="code" x="360" y="232">run / task cancel</text>
  <text class="code" x="360" y="258">emit --durable-backend</text>
  <text class="code" x="360" y="284">daemon start / control</text>
  <text class="code" x="360" y="310">memory / observability</text>
  <text class="code" x="360" y="336">backup / snapshot create</text>
  <line x1="360" y1="358" x2="564" y2="358" stroke="#93c5fd"/>
  <text class="text" x="360" y="386">写 task、event、daemon、</text>
  <text class="text" x="360" y="409">observability 或 artifact</text>
  <text class="text" x="360" y="430">目录，不等于生产部署。</text>

  <rect class="gated" x="610" y="164" width="252" height="302" rx="8"/>
  <text class="label" x="634" y="198">3. 受控执行与变更</text>
  <text class="code" x="634" y="232">capability call --confirm</text>
  <text class="code" x="634" y="258">skill run</text>
  <text class="code" x="634" y="284">restore apply / rollback</text>
  <text class="code" x="634" y="310">upgrade apply --state-store</text>
  <text class="code" x="634" y="336">agent drain/reload + daemon</text>
  <line x1="634" y1="358" x2="838" y2="358" stroke="#fdba74"/>
  <text class="text" x="634" y="386">可能执行外部 runner，或修改</text>
  <text class="text" x="634" y="409">本地文件/指针；按命令核对</text>
  <text class="text" x="634" y="430">confirm（如适用）、policy 和 health。</text>

  <rect class="blocked" x="884" y="164" width="252" height="302" rx="8"/>
  <text class="label" x="908" y="198">4. 当前不可用</text>
  <text class="code" x="908" y="232">raw hardware I/O</text>
  <text class="code" x="908" y="258">OS service-manager handoff</text>
  <text class="code" x="908" y="284">production provider supervisor</text>
  <text class="code" x="908" y="310">signed installer / package repo</text>
  <text class="code" x="908" y="336">production database sink</text>
  <line x1="908" y1="358" x2="1112" y2="358" stroke="#fca5a5"/>
  <text class="text" x="908" y="386">CLI 可能返回计划或 readiness</text>
  <text class="text" x="908" y="409">evidence，但不会完成这些生产</text>
  <text class="text" x="908" y="430">集成。</text>

  <rect x="68" y="500" width="1064" height="54" rx="6" fill="#f1f5f9"/>
  <text class="text" x="88" y="523">特别注意：<tspan class="code">mutation_executed:false</tspan> 只说明 CLI 未声明本地 destructive mutation；</text>
  <text class="text" x="88" y="544">仍需同时检查 <tspan class="code">invocation_executed</tspan>，确认外部 provider 或 Skill runner 是否已经运行。</text>
</svg>
