<svg xmlns="http://www.w3.org/2000/svg" width="1280" height="820" viewBox="0 0 1280 820" role="img" aria-labelledby="title desc">
  <title id="title">Eva-CLI workspace module partition</title>
  <desc id="desc">Current Eva-CLI workspace grouped into entry, composition, platform contracts, event execution, integrations, and operations. All twenty workspace crates are shown.</desc>
  <defs>
    <marker id="arrow" markerWidth="8" markerHeight="8" refX="7" refY="4" orient="auto"><path d="M0 0L8 4L0 8Z" fill="#475569"/></marker>
    <style>
      text{font-family:Inter,"Segoe UI","Microsoft YaHei",sans-serif;fill:#172033}.title{font-size:29px;font-weight:700}.subtitle{font-size:14px;fill:#526174}
      .section{font-size:16px;font-weight:700}.label{font-size:14px;font-weight:700}.small{font-size:12px;fill:#64748b}
      .panel{fill:#f8fafc;stroke:#cbd5e1;stroke-width:1.5}.purple{fill:#f5f3ff;stroke:#7c5ce7;stroke-width:1.5}
      .blue{fill:#eff6ff;stroke:#3b82f6;stroke-width:1.5}.green{fill:#ecfdf5;stroke:#22a06b;stroke-width:1.5}
      .orange{fill:#fff7ed;stroke:#ea8a1f;stroke-width:1.5}.rose{fill:#fff1f2;stroke:#e25572;stroke-width:1.5}
      .line{fill:none;stroke:#475569;stroke-width:2;marker-end:url(#arrow)}.dash{stroke-dasharray:7 6}
    </style>
  </defs>
  <rect width="1280" height="820" fill="#ffffff"/>
  <text class="title" x="44" y="48">Eva-CLI Workspace Module Partition</text>
  <text class="subtitle" x="44" y="74">The repository has twenty workspace crates. Grouping shows ownership; dependency detail belongs in the dependency diagram.</text>

  <rect class="panel" x="36" y="96" width="1208" height="112" rx="8"/>
  <text class="section" x="56" y="124">Entry and composition</text>
  <rect class="purple" x="94" y="145" width="170" height="46" rx="7"/><text class="label" x="179" y="174" text-anchor="middle">eva binary shim</text>
  <rect class="purple" x="350" y="145" width="170" height="46" rx="7"/><text class="label" x="435" y="174" text-anchor="middle">eva-cli</text>
  <rect class="green" x="606" y="145" width="190" height="46" rx="7"/><text class="label" x="701" y="174" text-anchor="middle">eva-runtime</text>
  <path class="line" d="M264 168H350"/><path class="line" d="M520 168H606"/>
  <text class="small" x="844" y="162">CLI also composes explicit operational commands</text>
  <text class="small" x="844" y="183">for backup, lifecycle, release, adapters, and services.</text>

  <rect class="panel" x="36" y="230" width="1208" height="112" rx="8"/>
  <text class="section" x="56" y="258">Platform contracts and infrastructure</text>
  <rect class="blue" x="116" y="279" width="170" height="46" rx="7"/><text class="label" x="201" y="308" text-anchor="middle">eva-core</text>
  <rect class="blue" x="334" y="279" width="170" height="46" rx="7"/><text class="label" x="419" y="308" text-anchor="middle">eva-config</text>
  <rect class="blue" x="552" y="279" width="170" height="46" rx="7"/><text class="label" x="637" y="308" text-anchor="middle">eva-policy</text>
  <rect class="blue" x="770" y="279" width="180" height="46" rx="7"/><text class="label" x="860" y="308" text-anchor="middle">eva-observability</text>
  <rect class="blue" x="998" y="279" width="170" height="46" rx="7"/><text class="label" x="1083" y="308" text-anchor="middle">eva-storage</text>

  <rect class="panel" x="36" y="364" width="1208" height="112" rx="8"/>
  <text class="section" x="56" y="392">Event and Agent execution</text>
  <rect class="orange" x="116" y="413" width="170" height="46" rx="7"/><text class="label" x="201" y="442" text-anchor="middle">eva-eventbus</text>
  <rect class="orange" x="334" y="413" width="170" height="46" rx="7"/><text class="label" x="419" y="442" text-anchor="middle">eva-scheduler</text>
  <rect class="orange" x="552" y="413" width="170" height="46" rx="7"/><text class="label" x="637" y="442" text-anchor="middle">eva-agent</text>
  <rect class="orange" x="770" y="413" width="180" height="46" rx="7"/><text class="label" x="860" y="442" text-anchor="middle">eva-lua-host</text>
  <rect class="orange" x="998" y="413" width="170" height="46" rx="7"/><text class="label" x="1083" y="442" text-anchor="middle">eva-capability</text>

  <rect class="panel" x="36" y="498" width="1208" height="112" rx="8"/>
  <text class="section" x="56" y="526">Integration services</text>
  <rect class="green" x="116" y="547" width="170" height="46" rx="7"/><text class="label" x="201" y="576" text-anchor="middle">eva-adapter</text>
  <rect class="green" x="334" y="547" width="170" height="46" rx="7"/><text class="label" x="419" y="576" text-anchor="middle">eva-mcp</text>
  <rect class="green" x="552" y="547" width="170" height="46" rx="7"/><text class="label" x="637" y="576" text-anchor="middle">eva-discovery</text>
  <rect class="green" x="770" y="547" width="180" height="46" rx="7"/><text class="label" x="860" y="576" text-anchor="middle">eva-memory</text>
  <rect class="green" x="998" y="547" width="170" height="46" rx="7"/><text class="label" x="1083" y="576" text-anchor="middle">eva-hardware</text>

  <rect class="panel" x="36" y="632" width="1208" height="112" rx="8"/>
  <text class="section" x="56" y="660">Operational services</text>
  <rect class="rose" x="260" y="681" width="190" height="46" rx="7"/><text class="label" x="355" y="710" text-anchor="middle">eva-backup</text>
  <rect class="rose" x="545" y="681" width="190" height="46" rx="7"/><text class="label" x="640" y="710" text-anchor="middle">eva-lifecycle</text>
  <rect class="rose" x="830" y="681" width="190" height="46" rx="7"/><text class="label" x="925" y="710" text-anchor="middle">eva-release</text>

  <text class="small" x="844" y="202">The domain bands below are ownership groups, not a single dependency chain.</text>
  <text class="small" x="44" y="782">MCP server and Supervisor are surfaces inside eva-mcp and eva-lifecycle; they are not separate workspace crates.</text>
</svg>
